#!OML:ASF H:\ManfredETheater\Project 1\Capture day 1\Session 1\subject.ASF
:FULLY-SPECIFIED
:DEGREES
139
root -3.91508 15.3827 -18.9356 -198.664 -40.3534 192.32
lowerback 21.9044 -0.247617 7.11082
upperback 1.21312 1.53328 5.34768
thorax -10.9276 0.302423 1.47315
lowerneck -14.1654 -5.11333 -5.80692
upperneck 7.09792 -5.88299 1.05009
head 4.61891 -2.99848 0.773011
rclavicle -1.50579e-014 3.18055e-015
rhumerus -31.9996 -13.8949 -24.9324
rradius 30.4294
rwrist -2.32144
rhand -26.712 -0.441151
rfingers 7.12502
rthumb -0.141901 -30.4208
lclavicle -1.50579e-014 3.18055e-015
lhumerus -60.6261 3.99839 65.1815
lradius 99.1328
lwrist 10.5195
lhand -24.3809 -14.6501
lfingers 7.12502
lthumb 2.10947 15.3192
rfemur -32.9561 -3.11586 25.5616
rtibia 67.0068
rfoot -17.746 -9.00702
rtoes -24.2455
lfemur -43.171 6.86302 -3.11617
ltibia 112.89
lfoot -14.7437 -5.31836
ltoes -6.49712
140
root -4.01186 15.2558 -19.1726 -198.675 -40.1214 192.3
lowerback 22.7406 0.0532933 7.03274
upperback 1.48603 1.95267 5.49132
thorax -11.0743 0.486931 1.5522
lowerneck -14.0531 -5.24906 -5.70461
upperneck 6.45843 -6.11433 1.25319
head 4.41237 -3.09295 0.811428
rclavicle -6.70898e-016 2.46493e-014
rhumerus -29.5295 -15.0929 -29.363
rradius 29.2714
rwrist -1.38499
rhand -25.7574 -0.643675
rfingers 7.12502
rthumb 0.780029 -30.622
lclavicle -6.70898e-016 2.46493e-014
lhumerus -58.5012 6.67073 69.2194
lradius 95.0519
lwrist 13.7731
lhand -25.2129 -14.7999
lfingers 7.12502
lthumb 1.3059 15.1759
rfemur -33.0938 -3.66162 25.9434
rtibia 69.1206
rfoot -19.6989 -9.12407
rtoes -25.4449
lfemur -46.8469 4.83369 -6.42811
ltibia 109.387
lfoot -14.7548 -4.34316
ltoes -6.84847
141
root -4.11719 15.141 -19.4096 -198.674 -39.5935 192.423
lowerback 23.4263 0.378862 7.22335
upperback 1.71308 2.4577 5.60367
thorax -11.1753 0.696592 1.41097
lowerneck -13.9828 -5.38515 -5.61599
upperneck 5.9977 -6.34498 1.53446
head 4.272 -3.18509 0.873067
rclavicle 6.40087e-014 6.99722e-014
rhumerus -27.0252 -14.3658 -34.5078
rradius 28.7484
rwrist -0.873326
rhand -24.731 -0.6517
rfingers 7.12502
rthumb 1.7714 -30.6241
lclavicle 6.40087e-014 6.99722e-014
lhumerus -56.298 8.71832 72.8768
lradius 91.1819
lwrist 17.0333
lhand -25.8444 -15.0699
lfingers 7.12502
lthumb 0.69607 14.9087
rfemur -33.1681 -3.99914 26.5354
rtibia 70.9902
rfoot -21.5359 -9.23391
rtoes -26.449
lfemur -49.941 3.09871 -8.81983
ltibia 105.241
lfoot -14.7752 -3.75817
ltoes -7.11775
142
root -4.22956 15.0449 -19.6483 -198.54 -38.7955 192.582
lowerback 23.9138 0.742714 7.58133
upperback 1.89397 3.04036 5.65441
thorax -11.2013 0.935712 1.07527
lowerneck -14.0113 -5.53596 -5.56402
upperneck 5.69206 -6.59001 1.92396
head 4.20176 -3.28019 0.967826
rclavicle 1.58531e-014 -1.44715e-013
rhumerus -24.6477 -11.7638 -40.1035
rradius 29.0282
rwrist -0.771969
rhand -23.691 -0.422677
rfingers 7.12502
rthumb 2.77581 -30.3844
lclavicle 1.58531e-014 -1.44715e-013
lhumerus -54.1753 10.0421 76.2266
lradius 87.7431
lwrist 19.8113
lhand -26.311 -15.3942
lfingers 7.12502
lthumb 0.245332 14.5854
rfemur -33.2049 -4.11716 27.2465
rtibia 72.5864
rfoot -23.3029 -9.20549
rtoes -26.7901
lfemur -52.5257 1.77048 -10.4737
ltibia 100.502
lfoot -14.7739 -3.57152
ltoes -7.32199
143
root -4.34679 14.9743 -19.8887 -198.193 -37.7787 192.657
lowerback 24.2058 1.16066 7.96202
upperback 2.04122 3.68372 5.63147
thorax -11.1416 1.20648 0.621736
lowerneck -14.1498 -5.70971 -5.58866
upperneck 5.47679 -6.85542 2.43091
head 4.18569 -3.38091 1.1044
rclavicle 1.55002e-013 -4.77083e-015
rhumerus -22.5347 -7.6976 -45.7753
rradius 30.2246
rwrist -0.913401
rhand -22.7144 0.0430586
rfingers 7.12502
rthumb 3.71887 -29.9042
lclavicle 1.55002e-013 -4.77083e-015
lhumerus -52.239 10.6125 79.364
lradius 84.8784
lwrist 21.7118
lhand -26.5958 -15.6991
lfingers 7.12502
lthumb -0.0296869 14.2807
rfemur -33.1889 -4.0479 27.9515
rtibia 73.8885
rfoot -24.9528 -9.04383
rtoes -26.8862
lfemur -54.618 0.850773 -11.6031
ltibia 95.2166
lfoot -14.705 -3.7777
ltoes -7.50238
144
root -4.46643 14.9311 -20.1309 -197.619 -36.6435 192.55
lowerback 24.3401 1.62822 8.22513
upperback 2.16323 4.34798 5.52928
thorax -11.0158 1.49914 0.140069
lowerneck -14.3508 -5.90035 -5.70749
upperneck 5.27212 -7.13159 3.03059
head 4.19179 -3.48426 1.28081
rclavicle 4.60683e-014 3.73715e-014
rhumerus -20.7608 -2.85225 -51.1812
rradius 32.3611
rwrist -1.01405
rhand -21.8319 0.711008
rfingers 7.12502
rthumb 4.57114 -29.2197
lclavicle 4.60683e-014 3.73715e-014
lhumerus -50.5704 10.4425 82.3608
lradius 82.67
lwrist 22.5719
lhand -26.7269 -15.9199
lfingers 7.12502
lthumb -0.1563 14.0598
rfemur -33.0849 -3.8822 28.519
rtibia 74.9109
rfoot -26.4945 -8.74208
rtoes -26.7722
lfemur -56.2112 0.238253 -12.4003
ltibia 89.4603
lfoot -14.5053 -4.35407
ltoes -7.69787
145
root -4.58675 14.9096 -20.3763 -196.862 -35.4992 192.23
lowerback 24.3684 2.12055 8.27136
upperback 2.25456 4.98218 5.3546
thorax -10.872 1.79435 -0.28759
lowerneck -14.5164 -6.08398 -5.86625
upperneck 4.99221 -7.39247 3.62657
head 4.17188 -3.58282 1.4651
rclavicle 1.71949e-014 2.06736e-014
rhumerus -19.312 2.17101 -56.1451
rradius 35.346
rwrist -0.905365
rhand -21.0804 1.4966
rfingers 7.12502
rthumb 5.29673 -28.4172
lclavicle 1.71949e-014 2.06736e-014
lhumerus -49.2567 9.59575 85.2246
lradius 81.1488
lwrist 22.4231
lhand -26.772 -15.9533
lfingers 7.12502
lthumb -0.199926 14.0263
rfemur -32.8794 -3.71575 28.8699
rtibia 75.7179
rfoot -27.9329 -8.35145
rtoes -26.6082
lfemur -57.3257 -0.210379 -12.9862
ltibia 83.3687
lfoot -14.1385 -5.23716
ltoes -8.04587
146
root -4.70752 14.9003 -20.6265 -196.027 -34.4188 191.739
lowerback 24.3342 2.6116 8.08963
upperback 2.32808 5.55299 5.13967
thorax -10.7309 2.07506 -0.608027
lowerneck -14.627 -6.24331 -6.01354
upperneck 4.64018 -7.61456 4.10818
head 4.11607 -3.67076 1.6181
rclavicle 3.42904e-014 1.74931e-014
rhumerus -18.1271 6.94424 -60.6074
rradius 39.0367
rwrist -0.602234
rhand -20.3758 2.30189
rfingers 7.12502
rthumb 5.97701 -27.5938
lclavicle 3.42904e-014 1.74931e-014
lhumerus -48.3231 8.18215 87.9721
lradius 80.2972
lwrist 21.5352
lhand -26.7337 -15.8089
lfingers 7.12502
lthumb -0.162878 14.1708
rfemur -32.5665 -3.61899 29.0018
rtibia 76.4065
rfoot -29.288 -7.88785
rtoes -26.3887
lfemur -57.99 -0.641732 -13.3864
ltibia 77.1252
lfoot -13.5632 -6.28264
ltoes -8.63841
